<svg width="25" height="23" viewBox="0 0 25 23" fill="none" xmlns="http://www.w3.org/2000/svg">
<path d="M2.16797 0.421875H20.9805C21.6086 0.421659 22.2154 0.651038 22.6865 1.06641C23.0985 1.42974 23.3819 1.91371 23.499 2.44629L23.5391 2.67773L24.8516 13.1777C24.8973 13.5407 24.8655 13.9092 24.7578 14.2588C24.6501 14.6084 24.4696 14.9317 24.2275 15.2061C23.9855 15.4804 23.687 15.6992 23.3535 15.8496C23.0201 16 22.6587 16.0783 22.293 16.0781H16.1211V17.875C16.1211 19.0229 15.6652 20.1239 14.8535 20.9355C14.0418 21.7472 12.9409 22.2031 11.793 22.2031C11.6392 22.2032 11.4883 22.1608 11.3574 22.0801C11.2265 21.9993 11.1206 21.8827 11.0518 21.7451L6.91992 13.4795L6.90625 13.4531H2.16797C1.71627 13.4531 1.28327 13.2735 0.963867 12.9541C0.644469 12.6347 0.464844 12.2017 0.464844 11.75V2.125C0.464844 1.6733 0.644469 1.2403 0.963867 0.920898C1.28327 0.601501 1.71627 0.421875 2.16797 0.421875ZM8.24609 12.4297L12.2666 20.4707L12.2822 20.5029L12.3174 20.4961C12.923 20.3749 13.4678 20.0471 13.8594 19.5693C14.2509 19.0915 14.465 18.4927 14.4648 17.875V15.25C14.4648 15.0304 14.5517 14.8194 14.707 14.6641C14.8623 14.5088 15.0733 14.4219 15.293 14.4219H22.293C22.4239 14.4227 22.5536 14.3957 22.6729 14.3418C22.792 14.288 22.8975 14.208 22.9834 14.1094L22.9844 14.1104C23.0718 14.0128 23.1372 13.8967 23.1758 13.7715C23.2047 13.6777 23.2182 13.5801 23.2158 13.4824L23.208 13.3848L21.8955 2.88477C21.8674 2.66206 21.7591 2.4571 21.5908 2.30859C21.4224 2.16007 21.2051 2.07805 20.9805 2.07812H8.24609V12.4297ZM2.12109 11.7969H6.58984V2.07812H2.12109V11.7969Z" fill="#1F2937" stroke="#1F2937" stroke-width="0.09375"/>
</svg>
