<svg width="31" height="32" viewBox="0 0 31 32" fill="none" xmlns="http://www.w3.org/2000/svg">
<path d="M25.9178 16.0803C26.0068 16.1692 26.0773 16.2747 26.1255 16.3909C26.1737 16.507 26.1984 16.6316 26.1984 16.7573C26.1984 16.8831 26.1737 17.0076 26.1255 17.1238C26.0773 17.2399 26.0068 17.3455 25.9178 17.4343L16.3484 27.0037C16.2595 27.0927 16.154 27.1633 16.0378 27.2114C15.9217 27.2596 15.7971 27.2844 15.6714 27.2844C15.5456 27.2844 15.4211 27.2596 15.3049 27.2114C15.1888 27.1633 15.0832 27.0927 14.9943 27.0037L5.42497 17.4343C5.24541 17.2548 5.14453 17.0113 5.14453 16.7573C5.14453 16.5034 5.24541 16.2598 5.42497 16.0803C5.60453 15.9007 5.84806 15.7998 6.102 15.7998C6.35594 15.7998 6.59947 15.9007 6.77903 16.0803L15.6714 24.9738L24.5637 16.0803C24.6526 15.9913 24.7581 15.9207 24.8743 15.8726C24.9905 15.8244 25.115 15.7996 25.2408 15.7996C25.3665 15.7996 25.491 15.8244 25.6072 15.8726C25.7234 15.9207 25.8289 15.9913 25.9178 16.0803ZM14.9943 17.4343C15.0832 17.5233 15.1888 17.5939 15.3049 17.6421C15.4211 17.6902 15.5456 17.715 15.6714 17.715C15.7971 17.715 15.9217 17.6902 16.0378 17.6421C16.154 17.5939 16.2595 17.5233 16.3484 17.4343L25.9178 7.86497C26.0973 7.68541 26.1982 7.44188 26.1982 7.18794C26.1982 6.934 26.0973 6.69047 25.9178 6.51091C25.7382 6.33134 25.4947 6.23047 25.2408 6.23047C24.9868 6.23047 24.7433 6.33134 24.5637 6.51091L15.6714 15.4044L6.77903 6.51091C6.59947 6.33134 6.35594 6.23047 6.102 6.23047C5.84806 6.23047 5.60453 6.33134 5.42497 6.51091C5.24541 6.69047 5.14453 6.934 5.14453 7.18794C5.14453 7.44188 5.24541 7.68541 5.42497 7.86497L14.9943 17.4343Z" fill="white"/>
</svg>
