<svg width="17" height="17" viewBox="0 0 17 17" fill="none" xmlns="http://www.w3.org/2000/svg">
<path d="M4.95551 5.84399C4.91761 5.75264 4.90766 5.6521 4.9269 5.55509C4.94615 5.45808 4.99373 5.36895 5.06364 5.29899L8.06364 2.29899C8.11007 2.2525 8.16522 2.21562 8.22592 2.19046C8.28661 2.16529 8.35168 2.15234 8.41739 2.15234C8.48309 2.15234 8.54816 2.16529 8.60886 2.19046C8.66955 2.21562 8.7247 2.2525 8.77114 2.29899L11.7711 5.29899C11.8411 5.36891 11.8888 5.45804 11.9082 5.55508C11.9275 5.65213 11.9176 5.75272 11.8797 5.84413C11.8418 5.93554 11.7777 6.01366 11.6954 6.0686C11.6131 6.12353 11.5163 6.15281 11.4174 6.15274H5.41739C5.3185 6.15272 5.22183 6.12337 5.13962 6.06842C5.05741 6.01346 4.99334 5.93536 4.95551 5.84399ZM11.4174 11.1527H5.41739C5.31844 11.1527 5.22169 11.1819 5.1394 11.2369C5.0571 11.2918 4.99295 11.3699 4.95507 11.4613C4.9172 11.5528 4.9073 11.6533 4.92662 11.7504C4.94595 11.8474 4.99363 11.9366 5.06364 12.0065L8.06364 15.0065C8.11007 15.053 8.16522 15.0899 8.22592 15.115C8.28661 15.1402 8.35168 15.1531 8.41739 15.1531C8.48309 15.1531 8.54816 15.1402 8.60886 15.115C8.66955 15.0899 8.7247 15.053 8.77114 15.0065L11.7711 12.0065C11.8411 11.9366 11.8888 11.8474 11.9082 11.7504C11.9275 11.6533 11.9176 11.5528 11.8797 11.4613C11.8418 11.3699 11.7777 11.2918 11.6954 11.2369C11.6131 11.1819 11.5163 11.1527 11.4174 11.1527Z" fill="#AC72FF"/>
</svg>
