<svg width="25" height="25" viewBox="0 0 25 25" fill="none" xmlns="http://www.w3.org/2000/svg">
<path d="M21.9443 19.25H21.1943V4.25C21.1943 4.05109 21.1153 3.86032 20.9747 3.71967C20.834 3.57902 20.6432 3.5 20.4443 3.5H15.1943C14.9954 3.5 14.8047 3.57902 14.664 3.71967C14.5234 3.86032 14.4443 4.05109 14.4443 4.25V8H9.94434C9.74542 8 9.55466 8.07902 9.41401 8.21967C9.27335 8.36032 9.19434 8.55109 9.19434 8.75V12.5H5.44434C5.24542 12.5 5.05466 12.579 4.91401 12.7197C4.77335 12.8603 4.69434 13.0511 4.69434 13.25V19.25H3.94434C3.74542 19.25 3.55466 19.329 3.41401 19.4697C3.27335 19.6103 3.19434 19.8011 3.19434 20C3.19434 20.1989 3.27335 20.3897 3.41401 20.5303C3.55466 20.671 3.74542 20.75 3.94434 20.75H21.9443C22.1432 20.75 22.334 20.671 22.4747 20.5303C22.6153 20.3897 22.6943 20.1989 22.6943 20C22.6943 19.8011 22.6153 19.6103 22.4747 19.4697C22.334 19.329 22.1432 19.25 21.9443 19.25ZM15.9443 5H19.6943V19.25H15.9443V5ZM10.6943 9.5H14.4443V19.25H10.6943V9.5ZM6.19434 14H9.19434V19.25H6.19434V14Z" fill="#AC72FF"/>
</svg>
