<svg width="25" height="23" viewBox="0 0 25 23" fill="none" xmlns="http://www.w3.org/2000/svg">
<path d="M11.4609 0.796875C12.6088 0.796875 13.7098 1.25277 14.5215 2.06445C15.3332 2.87613 15.7891 3.97711 15.7891 5.125V6.92188H21.9609C22.3267 6.9218 22.6881 7 23.0215 7.15039C23.3548 7.30076 23.6526 7.5198 23.8945 7.79395C24.1367 8.06827 24.318 8.39152 24.4258 8.74121C24.5335 9.09079 24.5652 9.45933 24.5195 9.82227L23.207 20.3223C23.1285 20.9453 22.8255 21.5182 22.3545 21.9336C21.8833 22.349 21.2765 22.5783 20.6484 22.5781H1.83594C1.38424 22.5781 0.951234 22.3985 0.631836 22.0791C0.312438 21.7597 0.132813 21.3267 0.132812 20.875V11.25C0.132813 10.7983 0.312438 10.3653 0.631836 10.0459C0.951234 9.7265 1.38424 9.54688 1.83594 9.54688H6.57422L6.58789 9.52051L10.7197 1.25488C10.7886 1.1173 10.8945 1.00074 11.0254 0.919922C11.1236 0.859336 11.2332 0.820409 11.3467 0.804688L11.4609 0.796875ZM1.78906 20.9219H6.25781V11.2031H1.78906V20.9219ZM11.9346 2.5293L7.91406 10.5703V20.9219H20.6484C20.873 20.9219 21.0903 20.8399 21.2588 20.6914C21.4059 20.5616 21.5069 20.3885 21.5488 20.1982L21.5635 20.1152L22.876 9.61523C22.8923 9.48545 22.8803 9.35353 22.8418 9.22852C22.8033 9.10359 22.7388 8.98768 22.6523 8.88965C22.5659 8.79172 22.4589 8.71388 22.3398 8.66016C22.2207 8.60643 22.0917 8.57808 21.9609 8.57812H14.9609C14.7413 8.57812 14.5303 8.49124 14.375 8.33594C14.2197 8.18063 14.1328 7.96963 14.1328 7.75V5.125L14.123 4.89453C14.0769 4.35953 13.87 3.84877 13.5273 3.43066C13.1358 2.95295 12.591 2.62512 11.9854 2.50391L11.9502 2.49707L11.9346 2.5293Z" fill="#1F2937" stroke="#1F2937" stroke-width="0.09375"/>
</svg>
