<svg width="24" height="24" viewBox="0 0 24 24" fill="none" xmlns="http://www.w3.org/2000/svg">
<path d="M12 0.671875C15.0034 0.675059 17.8831 1.86942 20.0068 3.99316C22.1306 6.11691 23.3249 8.99657 23.3281 12L23.3203 12.4199C23.2427 14.5133 22.5858 16.5476 21.4189 18.2939C20.1742 20.1567 18.4048 21.6085 16.335 22.4658C14.2651 23.3232 11.9874 23.5474 9.79004 23.1104C7.5926 22.6733 5.5745 21.594 3.99023 20.0098C2.40597 18.4255 1.32675 16.4074 0.889648 14.21C0.452565 12.0126 0.676821 9.73495 1.53418 7.66504C2.39153 5.5952 3.84329 3.82579 5.70605 2.58105C7.45266 1.41401 9.48733 0.757154 11.5811 0.679688L12 0.671875ZM15.7012 3.06445C13.9339 2.33246 11.9894 2.14054 10.1133 2.51367C8.23712 2.88686 6.51377 3.8085 5.16113 5.16113C3.8085 6.51377 2.88686 8.23712 2.51367 10.1133C2.14054 11.9894 2.33246 13.934 3.06445 15.7012C3.79649 17.4685 5.03642 18.9792 6.62695 20.042C8.21742 21.1046 10.0872 21.6719 12 21.6719C14.5642 21.669 17.0227 20.6491 18.8359 18.8359C20.6491 17.0228 21.669 14.5642 21.6719 12L21.665 11.6416C21.5988 9.85437 21.0381 8.11793 20.042 6.62695C18.9792 5.03642 17.4685 3.79649 15.7012 3.06445ZM7.625 14.6719H16.375C16.5946 14.6719 16.8056 14.7588 16.9609 14.9141C17.1162 15.0694 17.2031 15.2804 17.2031 15.5C17.2031 15.7196 17.1162 15.9306 16.9609 16.0859C16.8056 16.2412 16.5946 16.3281 16.375 16.3281H7.625C7.40537 16.3281 7.19437 16.2412 7.03906 16.0859C6.88376 15.9306 6.79688 15.7196 6.79688 15.5C6.79688 15.2804 6.88376 15.0694 7.03906 14.9141C7.19437 14.7588 7.40537 14.6719 7.625 14.6719ZM8.30957 8.57129C8.55501 8.62015 8.78007 8.74101 8.95703 8.91797C9.13399 9.09493 9.25485 9.31999 9.30371 9.56543C9.35255 9.81094 9.32724 10.0656 9.23145 10.2969C9.13564 10.5281 8.97371 10.7262 8.76562 10.8652C8.55754 11.0042 8.31274 11.0781 8.0625 11.0781C7.72684 11.0781 7.40532 10.9444 7.16797 10.707C6.93062 10.4697 6.79688 10.1482 6.79688 9.8125C6.79688 9.56226 6.87078 9.31746 7.00977 9.10938C7.1488 8.90129 7.34693 8.73936 7.57812 8.64355C7.80939 8.54776 8.06406 8.52245 8.30957 8.57129ZM15.9375 8.54688C16.2732 8.54688 16.5947 8.68062 16.832 8.91797C17.0694 9.15532 17.2031 9.47684 17.2031 9.8125C17.2031 10.0627 17.1292 10.3075 16.9902 10.5156C16.8512 10.7237 16.6531 10.8856 16.4219 10.9814C16.1906 11.0772 15.9359 11.1025 15.6904 11.0537C15.445 11.0049 15.2199 10.884 15.043 10.707C14.866 10.5301 14.7451 10.305 14.6963 10.0596C14.6475 9.81406 14.6728 9.55939 14.7686 9.32812C14.8644 9.09693 15.0263 8.8988 15.2344 8.75977C15.4425 8.62078 15.6873 8.54688 15.9375 8.54688Z" fill="#1F2937" stroke="#1F2937" stroke-width="0.09375"/>
</svg>
