<svg width="25" height="25" viewBox="0 0 25 25" fill="none" xmlns="http://www.w3.org/2000/svg">
<path d="M20.2252 6.27891L6.72518 19.7789C6.58445 19.9196 6.39358 19.9987 6.19456 19.9987C5.99553 19.9987 5.80466 19.9196 5.66393 19.7789C5.5232 19.6382 5.44414 19.4473 5.44414 19.2483C5.44414 19.0493 5.5232 18.8584 5.66393 18.7177L19.1639 5.21766C19.3045 5.07693 19.4953 4.99782 19.6942 4.99773C19.8932 4.99764 20.084 5.07659 20.2247 5.21719C20.3654 5.3578 20.4446 5.54855 20.4446 5.74749C20.4447 5.94642 20.3658 6.13724 20.2252 6.27797V6.27891ZM5.68268 10.0102C5.04977 9.37712 4.69425 8.51859 4.69434 7.62342C4.69442 6.72826 5.05011 5.86979 5.68315 5.23688C6.31619 4.60397 7.17472 4.24845 8.06989 4.24854C8.96505 4.24862 9.82352 4.60431 10.4564 5.23735C11.0893 5.87039 11.4449 6.72892 11.4448 7.62409C11.4447 8.51925 11.089 9.37772 10.456 10.0106C9.82292 10.6435 8.96439 10.9991 8.06922 10.999C7.17406 10.9989 6.31559 10.6432 5.68268 10.0102ZM6.19456 7.62516C6.1948 7.93346 6.27106 8.23694 6.41658 8.50872C6.5621 8.78051 6.77239 9.01223 7.02884 9.18334C7.28529 9.35446 7.57997 9.45971 7.8868 9.48976C8.19362 9.51981 8.50313 9.47374 8.7879 9.35562C9.07267 9.23751 9.32393 9.051 9.51941 8.81261C9.7149 8.57422 9.84859 8.2913 9.90864 7.98891C9.96869 7.68652 9.95325 7.37399 9.86369 7.07899C9.77413 6.78399 9.61321 6.51563 9.39518 6.29766C9.13285 6.03541 8.79862 5.85685 8.43478 5.7846C8.07094 5.71235 7.69385 5.74963 7.35121 5.89175C7.00857 6.03386 6.71579 6.27441 6.5099 6.58297C6.30401 6.89153 6.19426 7.25422 6.19456 7.62516ZM21.1946 17.3752C21.1944 18.156 20.9235 18.9126 20.428 19.516C19.9325 20.1195 19.2431 20.5325 18.4773 20.6847C17.7114 20.8368 16.9165 20.7188 16.228 20.3505C15.5394 19.9823 14.9999 19.3868 14.7012 18.6653C14.4025 17.9439 14.3633 17.1412 14.5901 16.3941C14.8169 15.6469 15.2957 15.0015 15.945 14.5678C16.5943 14.1342 17.3739 13.939 18.1509 14.0157C18.928 14.0924 19.6544 14.4361 20.2064 14.9883C20.5208 15.301 20.77 15.673 20.9396 16.0827C21.1092 16.4924 21.1959 16.9317 21.1946 17.3752ZM19.6946 17.3752C19.6946 16.9414 19.5443 16.521 19.2692 16.1856C18.9941 15.8502 18.6112 15.6206 18.1857 15.5359C17.7603 15.4511 17.3186 15.5166 16.936 15.721C16.5534 15.9254 16.2535 16.2562 16.0874 16.6569C15.9213 17.0577 15.8993 17.5036 16.0252 17.9187C16.151 18.3339 16.417 18.6925 16.7776 18.9336C17.1383 19.1747 17.5713 19.2832 18.003 19.2408C18.4348 19.1983 18.8384 19.0075 19.1452 18.7008C19.3198 18.5271 19.4583 18.3205 19.5526 18.093C19.6469 17.8655 19.6952 17.6215 19.6946 17.3752Z" fill="#AC72FF"/>
</svg>
