<svg width="19" height="19" viewBox="0 0 19 19" fill="none" xmlns="http://www.w3.org/2000/svg">
<path d="M10.7813 13.6758C10.7813 13.8797 10.7208 14.0791 10.6075 14.2487C10.4941 14.4183 10.3331 14.5505 10.1446 14.6285C9.95621 14.7066 9.74886 14.727 9.54882 14.6872C9.34877 14.6474 9.16502 14.5492 9.0208 14.405C8.87658 14.2608 8.77836 14.077 8.73857 13.877C8.69878 13.6769 8.7192 13.4696 8.79725 13.2811C8.87531 13.0927 9.00748 12.9316 9.17707 12.8183C9.34666 12.705 9.54604 12.6445 9.75 12.6445C10.0235 12.6445 10.2858 12.7532 10.4792 12.9466C10.6726 13.14 10.7813 13.4023 10.7813 13.6758ZM9.75 4.39453C7.85422 4.39453 6.3125 5.78242 6.3125 7.48828V7.83203C6.3125 8.01437 6.38494 8.18924 6.51387 8.31817C6.6428 8.4471 6.81767 8.51953 7 8.51953C7.18234 8.51953 7.35721 8.4471 7.48614 8.31817C7.61507 8.18924 7.6875 8.01437 7.6875 7.83203V7.48828C7.6875 6.54297 8.61305 5.76953 9.75 5.76953C10.887 5.76953 11.8125 6.54297 11.8125 7.48828C11.8125 8.43359 10.887 9.20703 9.75 9.20703C9.56767 9.20703 9.3928 9.27946 9.26387 9.40839C9.13494 9.53733 9.0625 9.71219 9.0625 9.89453V10.582C9.0625 10.7644 9.13494 10.9392 9.26387 11.0682C9.3928 11.1971 9.56767 11.2695 9.75 11.2695C9.93234 11.2695 10.1072 11.1971 10.2361 11.0682C10.3651 10.9392 10.4375 10.7644 10.4375 10.582V10.5202C12.005 10.2323 13.1875 8.98187 13.1875 7.48828C13.1875 5.78242 11.6458 4.39453 9.75 4.39453ZM18.6875 9.20703C18.6875 10.9747 18.1633 12.7027 17.1813 14.1724C16.1992 15.6422 14.8034 16.7877 13.1702 17.4642C11.5371 18.1407 9.74009 18.3177 8.00638 17.9728C6.27268 17.6279 4.68017 16.7767 3.43024 15.5268C2.18031 14.2769 1.32909 12.6844 0.984236 10.9507C0.63938 9.21695 0.816372 7.41991 1.49283 5.7868C2.16929 4.15368 3.31483 2.75784 4.78459 1.77577C6.25436 0.793707 7.98233 0.269531 9.75 0.269531C12.1196 0.272034 14.3914 1.21446 16.067 2.89003C17.7426 4.56559 18.685 6.83743 18.6875 9.20703ZM17.3125 9.20703C17.3125 7.71131 16.869 6.24918 16.038 5.00553C15.207 3.76188 14.0259 2.79258 12.644 2.22019C11.2622 1.6478 9.74161 1.49804 8.27463 1.78984C6.80765 2.08164 5.46014 2.8019 4.40251 3.85954C3.34487 4.91717 2.62462 6.26468 2.33282 7.73166C2.04101 9.19864 2.19078 10.7192 2.76316 12.1011C3.33555 13.4829 4.30486 14.664 5.5485 15.495C6.79215 16.326 8.25428 16.7695 9.75 16.7695C11.755 16.7673 13.6772 15.9698 15.095 14.552C16.5127 13.1343 17.3102 11.212 17.3125 9.20703Z" fill="#4B5563"/>
</svg>
