<svg width="13" height="12" viewBox="0 0 13 12" fill="none" xmlns="http://www.w3.org/2000/svg">
<path d="M2.8597 1.43809C2.8597 1.26349 2.92081 1.11508 3.04303 0.992863C3.16525 0.870643 3.30784 0.809533 3.4708 0.809533L11.5548 0.617473C11.741 0.617473 11.8923 0.675673 12.0087 0.792073C12.1251 0.908473 12.1833 1.05979 12.1833 1.24603L11.9913 9.33001C11.9913 9.49297 11.9302 9.63556 11.8079 9.75778C11.6857 9.88 11.5373 9.9382 11.3627 9.93238C11.1881 9.92656 11.0397 9.86254 10.9175 9.74032C10.7953 9.6181 10.74 9.46969 10.7516 9.29509L10.9262 1.87459L3.50572 2.04919C3.33112 2.04919 3.18271 1.99099 3.06049 1.87459C2.93827 1.75819 2.87134 1.61269 2.8597 1.43809ZM1.06132 11.5998C0.944919 11.4718 0.886719 11.3234 0.886719 11.1546C0.886719 10.9858 0.944919 10.8432 1.06132 10.7268L10.8215 0.966673C10.9495 0.838633 11.0979 0.774613 11.2667 0.774613C11.4355 0.774613 11.581 0.835723 11.7032 0.957943C11.8254 1.08016 11.8865 1.22857 11.8865 1.40317C11.8865 1.57777 11.8225 1.72327 11.6945 1.83967L1.93432 11.5998C1.81792 11.7162 1.67533 11.7744 1.50655 11.7744C1.33777 11.7744 1.18936 11.7162 1.06132 11.5998Z" fill="#170630"/>
</svg>
